<svg xmlns="http://www.w3.org/2000/svg" viewBox="0 0 80 80" fill="none" aria-label="Dense point grid">
  <g fill="#2563eb">
    <circle cx="10" cy="14" r="1.2" />
    <circle cx="20" cy="14" r="1.2" />
    <circle cx="30" cy="14" r="1.2" />
    <circle cx="40" cy="14" r="1.2" />
    <circle cx="50" cy="14" r="1.2" />
    <circle cx="60" cy="14" r="1.2" />
    <circle cx="70" cy="14" r="1.2" />
    <circle cx="10" cy="24" r="1.2" />
    <circle cx="20" cy="24" r="1.2" />
    <circle cx="30" cy="24" r="1.2" />
    <circle cx="40" cy="24" r="1.2" />
    <circle cx="50" cy="24" r="1.2" />
    <circle cx="60" cy="24" r="1.2" />
    <circle cx="70" cy="24" r="1.2" />
    <circle cx="10" cy="34" r="1.2" />
    <circle cx="20" cy="34" r="1.2" />
    <circle cx="30" cy="34" r="1.2" />
    <circle cx="40" cy="34" r="1.2" />
    <circle cx="50" cy="34" r="1.2" />
    <circle cx="60" cy="34" r="1.2" />
    <circle cx="70" cy="34" r="1.2" />
    <circle cx="10" cy="44" r="1.2" />
    <circle cx="20" cy="44" r="1.2" />
    <circle cx="30" cy="44" r="1.2" />
    <circle cx="40" cy="44" r="1.2" />
    <circle cx="50" cy="44" r="1.2" />
    <circle cx="60" cy="44" r="1.2" />
    <circle cx="70" cy="44" r="1.2" />
    <circle cx="10" cy="54" r="1.2" />
    <circle cx="20" cy="54" r="1.2" />
    <circle cx="30" cy="54" r="1.2" />
    <circle cx="40" cy="54" r="1.2" />
    <circle cx="50" cy="54" r="1.2" />
    <circle cx="60" cy="54" r="1.2" />
    <circle cx="70" cy="54" r="1.2" />
    <circle cx="10" cy="64" r="1.2" />
    <circle cx="20" cy="64" r="1.2" />
    <circle cx="30" cy="64" r="1.2" />
    <circle cx="40" cy="64" r="1.2" />
    <circle cx="50" cy="64" r="1.2" />
    <circle cx="60" cy="64" r="1.2" />
    <circle cx="70" cy="64" r="1.2" />
  </g>
  <g fill="#60a5fa" opacity="0.5">
    <circle cx="15" cy="19" r="1.2" />
    <circle cx="25" cy="19" r="1.2" />
    <circle cx="35" cy="19" r="1.2" />
    <circle cx="45" cy="19" r="1.2" />
    <circle cx="55" cy="19" r="1.2" />
    <circle cx="65" cy="19" r="1.2" />
    <circle cx="15" cy="29" r="1.2" />
    <circle cx="25" cy="29" r="1.2" />
    <circle cx="35" cy="29" r="1.2" />
    <circle cx="45" cy="29" r="1.2" />
    <circle cx="55" cy="29" r="1.2" />
    <circle cx="65" cy="29" r="1.2" />
    <circle cx="15" cy="39" r="1.2" />
    <circle cx="25" cy="39" r="1.2" />
    <circle cx="35" cy="39" r="1.2" />
    <circle cx="45" cy="39" r="1.2" />
    <circle cx="55" cy="39" r="1.2" />
    <circle cx="65" cy="39" r="1.2" />
    <circle cx="15" cy="49" r="1.2" />
    <circle cx="25" cy="49" r="1.2" />
    <circle cx="35" cy="49" r="1.2" />
    <circle cx="45" cy="49" r="1.2" />
    <circle cx="55" cy="49" r="1.2" />
    <circle cx="65" cy="49" r="1.2" />
    <circle cx="15" cy="59" r="1.2" />
    <circle cx="25" cy="59" r="1.2" />
    <circle cx="35" cy="59" r="1.2" />
    <circle cx="45" cy="59" r="1.2" />
    <circle cx="55" cy="59" r="1.2" />
    <circle cx="65" cy="59" r="1.2" />
  </g>
</svg>
